HIERARCHY
ROOT Hips
{
	OFFSET 0.000000 0.000000 0.000000
	CHANNELS 6 Xposition Yposition Zposition Xrotation Yrotation Zrotation
	JOINT LeftUpLeg_virtual
	{
		OFFSET 0.000000 0.000000 0.000000
		CHANNELS 3 Xrotation Yrotation Zrotation
		JOINT LeftUpLeg
		{
			OFFSET 11.394100 -6.187798 -0.413800
			CHANNELS 3 Xrotation Yrotation Zrotation
			JOINT LeftLeg
			{
				OFFSET 0.430247 -32.302673 3.732800
				CHANNELS 3 Xrotation Yrotation Zrotation
				JOINT LeftFoot
				{
					OFFSET -0.430247 -48.264931 -6.423300
					CHANNELS 3 Xrotation Yrotation Zrotation
					JOINT LeftToeBase
					{
						OFFSET 4.230900 -16.068199 23.438400
						CHANNELS 3 Xrotation Yrotation Zrotation
						JOINT LeftToe_End
						{
							OFFSET 4.510700 0.695400 19.974600
							CHANNELS 3 Xrotation Yrotation Zrotation
							End Site
							{
								OFFSET 0 0 0
							}
						}
					}
				}
			}
		}
	}
	JOINT RightUpLeg_virtual
	{
		OFFSET 0.000000 0.000000 0.000000
		CHANNELS 3 Xrotation Yrotation Zrotation
		JOINT RightUpLeg
		{
			OFFSET -11.333700 -6.187798 -0.413800
			CHANNELS 3 Xrotation Yrotation Zrotation
			JOINT RightLeg
			{
				OFFSET -0.430392 -32.302628 3.733000
				CHANNELS 3 Xrotation Yrotation Zrotation
				JOINT RightFoot
				{
					OFFSET 0.430392 -48.264973 -6.423500
					CHANNELS 3 Xrotation Yrotation Zrotation
					JOINT RightToeBase
					{
						OFFSET -4.230900 -16.068199 23.438400
						CHANNELS 3 Xrotation Yrotation Zrotation
						JOINT RightToe_End
						{
							OFFSET -4.510700 0.695400 19.974600
							CHANNELS 3 Xrotation Yrotation Zrotation
							End Site
							{
								OFFSET 0 0 0
							}
						}
					}
				}
			}
		}
	}
	JOINT Spine_virtual
	{
		OFFSET 0.000000 0.000000 0.000000
		CHANNELS 3 Xrotation Yrotation Zrotation
		JOINT Spine
		{
			OFFSET -0.002400 12.777504 0.315300
			CHANNELS 3 Xrotation Yrotation Zrotation
			JOINT Spine1
			{
				OFFSET -0.002067 5.816869 0.032633
				CHANNELS 3 Xrotation Yrotation Zrotation
				JOINT Spine1_split
				{
					OFFSET -0.002067 5.816869 0.032633
					CHANNELS 3 Xrotation Yrotation Zrotation
					JOINT Spine2
					{
						OFFSET -0.002067 5.816869 0.032633
						CHANNELS 3 Xrotation Yrotation Zrotation
						JOINT Neck_virtual
						{
							OFFSET 0.000000 0.000000 0.000000
							CHANNELS 3 Xrotation Yrotation Zrotation
							JOINT Neck
							{
								OFFSET -0.003700 21.199493 -0.826900
								CHANNELS 3 Xrotation Yrotation Zrotation
								JOINT Head
								{
									OFFSET 0.000000 20.442200 4.834800
									CHANNELS 3 Xrotation Yrotation Zrotation
									JOINT HeadTop_End
									{
										OFFSET 0.000000 34.668396 4.968400
										CHANNELS 3 Xrotation Yrotation Zrotation
										End Site
										{
											OFFSET 0 0 0
										}
									}
								}
							}
						}
						JOINT LeftShoulder_virtual
						{
							OFFSET 0.000000 0.000000 0.000000
							CHANNELS 3 Xrotation Yrotation Zrotation
							JOINT LeftShoulder
							{
								OFFSET 3.288150 8.794197 -1.372250
								CHANNELS 3 Xrotation Yrotation Zrotation
								JOINT LeftShoulder_split
								{
									OFFSET 3.288150 8.794197 -1.372250
									CHANNELS 3 Xrotation Yrotation Zrotation
									JOINT LeftArm
									{
										OFFSET 11.953299 -2.279007 -0.146200
										CHANNELS 3 Xrotation Yrotation Zrotation
										JOINT LeftForeArm
										{
											OFFSET 18.448900 0.000000 0.000000
											CHANNELS 3 Xrotation Yrotation Zrotation
											JOINT LeftHand
											{
												OFFSET 29.527798 0.000000 0.000000
												CHANNELS 3 Xrotation Yrotation Zrotation
												End Site
												{
													OFFSET 0 0 0
												}
											}
										}
									}
								}
							}
						}
						JOINT RightShoulder_virtual
						{
							OFFSET 0.000000 0.000000 0.000000
							CHANNELS 3 Xrotation Yrotation Zrotation
							JOINT RightShoulder
							{
								OFFSET -3.249400 8.794197 -1.372250
								CHANNELS 3 Xrotation Yrotation Zrotation
								JOINT RightShoulder_split
								{
									OFFSET -3.249400 8.794197 -1.372250
									CHANNELS 3 Xrotation Yrotation Zrotation
									JOINT RightArm
									{
										OFFSET -11.953299 -2.279007 -0.146200
										CHANNELS 3 Xrotation Yrotation Zrotation
										JOINT RightForeArm
										{
											OFFSET -18.448900 0.000000 0.000000
											CHANNELS 3 Xrotation Yrotation Zrotation
											JOINT RightHand
											{
												OFFSET -29.527802 0.000000 0.000000
												CHANNELS 3 Xrotation Yrotation Zrotation
												End Site
												{
													OFFSET 0 0 0
												}
											}
										}
									}
								}
							}
						}
					}
				}
			}
		}
	}
}
MOTION
Frames: 4
Frame Time: 0.03333333
10.162697 92.598145 -19.057369 0.000000 0.000000 0.000000 8.774820 14.541797 -0.913287 -3.946614 9.407038 9.764778 41.487088 -2.377257 5.389197 -3.104343 -9.598252 -16.986636 -18.389690 0.126058 -2.903254 0.000000 0.000000 0.000000 8.241551 12.222798 -0.668334 -50.277405 -8.788034 -6.837899 46.264037 -2.827829 -0.853734 -2.348732 3.067190 -3.113404 -2.496249 1.172655 -1.054015 0.000000 0.000000 0.000000 8.918480 11.672420 -0.376817 0.973180 -2.819839 -1.015271 2.619260 -1.623831 1.883570 -1.121568 1.175305 0.103710 0.000000 0.000000 0.000000 2.758917 -2.612001 2.210912 -4.106290 3.018774 0.856490 -12.017615 4.723612 8.189907 0.000000 0.000000 0.000000 1.132123 -1.794023 2.402149 0.939466 1.764447 -0.942005 4.247471 -5.990927 7.131743 -43.771588 -7.503793 -37.398311 173.599448 -63.422616 173.854843 0.000000 0.000000 0.000000 1.473332 -2.870979 1.749216 -0.763485 -18.967275 6.919903 -0.077674 8.915600 -4.320870 -35.530453 9.277609 55.650660 -173.000523 62.622002 174.568311 0.000000 0.000000 0.000000 
10.648268 94.942795 -20.139156 0.000000 0.000000 0.000000 11.339206 16.118044 -2.279064 -16.938994 7.553805 13.634076 54.837461 -2.412528 4.288218 5.773608 -10.344115 -14.509668 -8.615261 0.288547 -5.863839 0.000000 0.000000 0.000000 9.420073 12.385318 -1.411528 -47.929592 -10.106260 -6.264912 43.630914 -1.970310 -0.834268 -2.740344 3.108539 -2.378791 -6.285903 0.767431 -1.958751 0.000000 0.000000 0.000000 10.366050 11.268756 -1.047856 5.117817 -2.237520 -0.660139 2.702090 -1.171143 0.886128 0.300146 1.375510 0.011621 0.000000 0.000000 0.000000 2.733594 -2.188139 1.554321 -5.208404 2.657200 -1.091727 -15.851199 2.040032 9.709593 0.000000 0.000000 0.000000 1.322230 -1.380832 1.606020 1.095322 0.717493 10.491929 4.340856 -3.253274 2.840708 -59.857736 -6.389042 -35.898942 173.261600 -67.886466 172.853100 0.000000 0.000000 0.000000 1.666795 -2.182784 0.925546 -2.572532 -18.034628 -0.903203 0.729581 6.503827 -4.550109 -53.639251 3.682888 58.603399 -173.087034 66.121081 173.842398 0.000000 0.000000 0.000000 
10.889760 96.600708 -20.446293 0.000000 0.000000 0.000000 13.338810 15.665942 -2.749886 -29.708891 6.932405 16.809804 66.464892 -0.463040 1.857274 12.354112 -7.762302 -7.966684 0.705404 -0.063975 -8.378168 0.000000 0.000000 0.000000 10.758863 11.787516 -1.771829 -46.185404 -10.935474 -6.369047 42.142045 -2.765887 -0.270447 -3.689912 2.508089 -3.528427 -10.197811 -0.012075 -1.951187 0.000000 0.000000 0.000000 11.912126 9.984470 -1.168909 8.450867 -1.622061 -1.036096 3.145013 -0.754410 0.088731 1.584447 1.452008 -0.071852 0.000000 0.000000 0.000000 3.249818 -1.716234 1.066856 -6.368029 2.359959 -2.712275 -19.891748 -0.188848 10.894983 0.000000 0.000000 0.000000 1.981883 -1.032845 0.948391 1.276698 0.219010 20.908884 4.257649 -0.074110 -0.263624 -72.430789 -5.939462 -31.913707 169.602886 -75.797717 168.942776 0.000000 0.000000 0.000000 2.446274 -1.524094 0.215539 -4.127356 -16.379507 -8.993956 1.504504 3.267979 -4.318038 -66.748584 -3.118344 57.783680 -174.188675 70.084626 173.439690 0.000000 0.000000 0.000000 
10.940780 97.804497 -20.440464 0.000000 0.000000 0.000000 14.556257 13.284870 -2.101061 -40.986633 7.815225 18.703457 74.320333 2.006231 -1.022508 15.807575 -3.729733 -0.123834 3.978343 -0.458300 -8.426459 0.000000 0.000000 0.000000 12.184778 9.867366 -1.516711 -45.502560 -11.172639 -7.352714 40.898845 -4.577814 0.685765 -3.511890 1.636136 -5.350365 -13.468704 -0.976306 -1.184685 0.000000 0.000000 0.000000 13.336295 8.059201 -0.734061 10.282804 -1.128704 -1.966872 3.775568 -0.445719 -0.282507 1.620413 0.929558 0.336869 0.000000 0.000000 0.000000 4.085268 -1.259412 0.928580 -7.431904 2.158130 -3.464080 -23.140794 -1.627578 11.740120 0.000000 0.000000 0.000000 2.853024 -0.764652 0.714139 1.201715 0.511130 28.132204 3.849340 2.483229 -3.107858 -79.833129 -6.400774 -27.416212 157.127286 -83.341149 156.915072 0.000000 0.000000 0.000000 3.518945 -1.075274 -0.181026 -4.946135 -14.348365 -15.309237 1.946941 0.513729 -3.094360 -72.451116 -8.152299 55.002226 -176.560909 73.518674 173.995859 0.000000 0.000000 0.000000 
